<svg viewBox="0 0 100.46 100.46" id="benefit-8"><g><rect class="cr1" width="100.46" height="100.46"></rect><g><rect class="cr2" x="12.37" y="24.67" width="13.43" height="30.48" rx="2.97" ry="2.97" transform="translate(17.8 84.12) rotate(-152.79)"></rect><rect class="cr2" x="29.95" y="57.98" width="6.72" height="13.04" rx="3.36" ry="3.36" transform="translate(18.13 135.48) rotate(-140.61)"></rect><rect class="cr2" x="24.11" y="56.07" width="6.72" height="9.39" rx="3.36" ry="3.36" transform="translate(10.13 125.16) rotate(-140.61)"></rect><rect class="cr2" x="39.02" y="70.76" width="5.86" height="8.1" rx="2.93" ry="2.93" transform="translate(26.89 159.25) rotate(-140.61)"></rect><rect class="cr2" x="34.87" y="63.01" width="6.72" height="12.58" rx="3.36" ry="3.36" transform="translate(23.8 147.12) rotate(-140.61)"></rect><path class="cr2" d="M55.75,58.2l11.48,10.25c1.59,1.42,4.02,1.28,5.43-.31h0c1.42-1.59,1.28-4.02-.31-5.43l-21.5-19.2c-1.59-1.42-2.76-1.35-4.18,.24,0,0-1.15,2.03-1.27,4.04s-2.12,5.54-4.13,6.13-3.89-.12-4.13-.83,0-2.48,0-4.95-1.13-5.99,1.32-8.24,8.2-7.21,8.2-7.21c0,0,1.98-2.24,7.08-1.53s11.94,2.01,11.94,2.01c0,0,1.18,.47,3.66-.12s3.68-1.11,3.68-1.11"></path><path class="cr2" d="M66.14,67.39c1.59,1.42,1.72,3.85,.31,5.43h0c-1.42,1.59-3.85,1.72-5.43,.31l-9.66-8.63"></path><path class="cr2" d="M59.46,71.7c1.59,1.42,1.85,3.7,.59,5.11h0c-1.26,1.41-3.56,1.4-5.15-.01l-8.22-7.34"></path><path class="cr2" d="M52.38,74.59c1.59,1.42,1.85,3.7,.59,5.11h0c-1.26,1.41-3.56,1.4-5.15-.01l-3.51-3.14"></path><rect class="cr2" x="76.26" y="25.54" width="13.43" height="30.48" rx="2.97" ry="2.97" transform="translate(174.48 53.92) rotate(162)"></rect><path class="cr2" d="M80.38,54.52s-2.52,.59-3.11,1.88-2.65,4-6.1,5.24"></path><path class="cr2" d="M43.67,35.31h-6.14c-.94,0-1.86-.21-2.71-.62l-4.41-2.13"></path><path class="cr2" d="M19.08,54.43l2.39,1.03s.86,3.14,2.55,4.2"></path></g></g></svg>