<svg viewBox="0 0 100.46 100.46" id="benefit-2"><g><rect class="cr1" width="100.46" height="100.46"></rect><g><path class="cr2" d="M50.28,77.06c0,5.4-4.37,9.77-9.77,9.77h-11.45c-2.8,0-5.07-2.26-5.07-5.06l-1.98-12.33c-.12-.96-.81-1.76-1.75-2.02l-4.57-1.27c-1.4-.39-2.15-1.92-1.58-3.26,1.01-2.39,2.56-6.05,3.84-9.08,1.25-2.96,1.98-6.12,1.92-9.33-.03-1.31,.02-2.65,.15-4,1.13-11.82,8.62-21.89,18.9-26.81,4.3-2.03,9.09-3.19,14.16-3.19,18.38,0,33.45,14.9,33.45,33.28,0,7-2.16,13.5-5.85,18.87-1.89,2.75-2.86,6.03-2.86,9.37v17.99"></path><path class="cr2" d="M41.18,31.69c-.06-.44-.08-.89-.08-1.34,0-5.91,4.79-10.69,10.69-10.69,4.36,0,8.11,2.71,9.78,6.46"></path><path class="cr2" d="M61.56,26.11c.46-.07,.94-.11,1.42-.11,5.12,0,9.27,4.15,9.27,9.27,0,1.8-.51,3.48-1.4,4.9"></path><path class="cr2" d="M39.84,47.14c-5.12,0-9.27-4.15-9.27-9.27s4.15-9.27,9.27-9.27c.42,0,.84,.03,1.24,.08"></path><path class="cr2" d="M71.95,37.64c2.55,1.25,4.31,3.87,4.31,6.91,0,4.24-3.44,7.69-7.69,7.69s-7.69-3.44-7.69-7.69"></path><path class="cr2" d="M64.23,38.09c.35,1.93-.38,3.97-2.07,5.21-2.35,1.73-5.67,1.23-7.4-1.12"></path><path class="cr2" d="M47.96,32.33c1.11-1.61,3.08-2.54,5.15-2.23,2.89,.44,4.88,3.13,4.44,6.02"></path><path class="cr2" d="M47.07,41.21c-3.3,0-5.98,2.68-5.98,5.98h0c0,3.3,2.68,5.98,5.98,5.98h3.91c3.44,0,6.22,2.79,6.22,6.22v5.14"></path></g></g></svg>