<svg viewBox="0 0 100.46 100.46" id="benefit-10"><g><rect class="cr1" width="100.46" height="100.46"></rect><g><path class="cr2" d="M73.77,81.25H26.69c-1.95,0-3.53-1.58-3.53-3.53V26.64c0-1.95,1.58-3.53,3.53-3.53h47.08c1.95,0,3.53,1.58,3.53,3.53v51.08c0,1.95-1.58,3.53-3.53,3.53Z"></path><g><line class="cr2" x1="32" y1="15.86" x2="32" y2="30.37"></line><line class="cr2" x1="68.46" y1="15.86" x2="68.46" y2="30.37"></line></g><polygon class="cr2" points="72.49 75.32 27.98 75.32 27.98 39.46 39.14 39.46 72.49 39.46 72.49 75.32"></polygon><g><line class="cr2" x1="38.86" y1="75.25" x2="38.86" y2="39.39"></line><line class="cr2" x1="50.36" y1="75.25" x2="50.36" y2="39.39"></line><line class="cr2" x1="61.6" y1="75.25" x2="61.6" y2="39.39"></line></g><g><line class="cr2" x1="71.96" y1="51.46" x2="28.5" y2="51.46"></line><line class="cr2" x1="71.96" y1="63.32" x2="28.5" y2="63.32"></line></g></g></g></svg>