<svg viewBox="0 0 100.46 100.46" id="benefit-7"><g><rect class="cr1" width="100.46" height="100.46"></rect><g><path class="cr2" d="M27.38,34.98l-7.16-10.02c-.82-1.15-.2-2.79,1.19-3.06,4.35-.87,12.78-1.24,18.28,6.93,0,0,36.92-7.03,43.07,22.2,0,0,2.64,9.45-6.59,18.24l1,10.58c.29,3.05-2.11,5.69-5.17,5.69h-5.04c-1.67,0-3.24-.8-4.21-2.15l-4.16-5.76s-2.2,1.1-5.49,1.32-7.47-.88-7.47-.88l-3.02,5.34c-.75,1.32-2.15,2.14-3.66,2.14h-6.22c-2.5,0-4.45-2.17-4.18-4.65l.82-7.65s-7.03-4.4-9.45-9.67l-5.56-2.38c-1.3-.56-2.13-1.83-2.13-3.24v-10.27c0-1.56,1.02-2.93,2.51-3.37l5.4-1.61s2.86-5.71,7.25-7.69Z"></path><circle class="cr2" cx="30.9" cy="41.49" r="2.68"></circle><path class="cr2" d="M72.03,29.58c1.27-7.54-3.82-14.68-11.36-15.95-7.54-1.27-14.68,3.82-15.95,11.36"></path><path class="cr2" d="M82.76,51.02s5.49-.08,5.49-3.82-2.75-2.99-2.75-2.99"></path></g></g></svg>