<svg viewBox="0 0 100.46 100.46" id="benefit-4"><path class="cr1" d="M0 0h100.46v100.46H0z"></path><path class="cr2" d="M51.18 42.89c-.62-.86-1.35-1.67-2.2-2.4-5.1-4.41-12.82-4.37-17.88.09-5.96 5.25-6.18 14.36-.65 19.89l20.73 20.32s6.36 6.39 29.01 7.02c2.01.06 3.68-1.57 3.68-3.59V49.57c0-1.91 1.54-3.45 3.45-3.45h4.66c1.69 0 2.37-2.19.98-3.15l-14.32-9.83V21.07c0-1.36-1.11-2.47-2.47-2.47h-7.04c-1.36 0-2.47 1.11-2.47 2.47v3.84L51.19 14.29h0L9.41 42.98c-1.4.96-.72 3.15.98 3.15h4.66c1.91 0 3.45 1.54 3.45 3.45v34.66c0 2.02 1.66 3.64 3.68 3.59 22.65-.63 29.01-7.02 29.01-7.02l20.73-20.32c5.53-5.53 5.32-14.63-.64-19.88-5.06-4.46-12.78-4.5-17.88-.1-.85.73-1.58 1.54-2.2 2.4"></path></svg>