<svg viewBox="0 0 100.46 100.46" id="benefit-9"><g><rect class="cr1" width="100.46" height="100.46"></rect><g><path class="cr2" d="M47.53,42.43v-15.18c0-2.5-2.03-4.53-4.53-4.53h0c-2.5,0-4.53,2.03-4.53,4.53v27.68"></path><path class="cr2" d="M56.1,43.1V19.83c0-2.5-1.92-4.53-4.29-4.53h0c-2.37,0-4.29,2.03-4.29,4.53v14.46"></path><path class="cr2" d="M65.14,42.66V22.6c0-2.5-2.02-4.53-4.52-4.53h0c-2.5,0-4.52,2.03-4.52,4.53v14.46"></path><path class="cr2" d="M65.14,45.52v-14.46c0-2.5,1.87-4.53,4.18-4.53h0c2.31,0,4.18,2.03,4.18,4.53v34.57s-.56,19.52-19.3,19.52-25.99-14.73-27.11-18.63-3.46-21.08-4.02-22.31c0,0,4.04-4.52,7.03-1.12,1.56,1.78,5.35,10.32,5.35,10.32,0,0,10.93,4.29,11.16,14.78"></path><path class="cr2" d="M56.1,65.16l8.09-7.94c2.08-2.08,2.08-5.45,0-7.53s-5.45-2.08-7.53,0c-.21,.21-.4,.43-.56,.66-.17-.23-.36-.45-.56-.66-2.08-2.08-5.45-2.08-7.53,0s-2.08,5.45,0,7.53l8.09,7.94Z"></path></g></g></svg>