<svg viewBox="0 0 100.46 100.46" id="benefit-5"><g><rect class="cr1" width="100.46" height="100.46"></rect><g><path class="cr2" d="M54.87,36.6l14.12,14.12c4.31,4.31,8.82,7.13,8.82,24.71v1.76s4.01-3.05,7.06-5.29c3.11-2.29,7.9,3.31,3.53,7.06-2.87,2.46-10.59,8.82-10.59,8.82H38.98v-3.53c0-1.95,1.58-3.53,3.53-3.53h10.59s-7.56-10.33-5.29-15.88c2.21-5.4,7.39-6.51,14.53-4.47"></path><path class="cr2" d="M40.75,17.19s-1.72,3.32-1.76,10.29c-.02,3.45,2.31,6.6,5.69,7.23,4.5,.84,8.42-2.59,8.42-6.93,0-6.73-1.44-13.67-7.06-17.65-2.87-2.03-10.59-3.53-14.12-3.53-2.43,0-4.04,.63-5.29,1.76-.81,.74-1.76,1.76-1.76,1.76h-8.82c-2.57,0-3.53,1.62-3.53,3.53,0,1.4,.66,4.19,1.76,8.82,3.46,1.25,9.34,3.38,14.12,5.29-.06,.17-3.53,11.47-3.53,17.65s.99,10.7,8.82,17.65l-5.29,17.65h0c-1.95,0-3.53,1.58-3.53,3.53v3.53h8.82"></path></g></g></svg>