<?xml version="1.0" encoding="utf-8"?>
<!-- Generator: Adobe Illustrator 21.0.0, SVG Export Plug-In . SVG Version: 6.00 Build 0)  -->
<svg version="1.1" xmlns="http://www.w3.org/2000/svg" xmlns:xlink="http://www.w3.org/1999/xlink" x="0px" y="0px"
	 viewBox="0 0 200 37" style="enable-background:new 0 0 200 37;" xml:space="preserve">
<style type="text/css">
	.st0{fill:#c45824;}
	.st1{fill:#FFFFFF;}
</style>
<g id="Layer_2">
</g>
<g id="Layer_1">
	<g>
		<polygon class="st0" points="189.4,37 199.9,26.4 199.9,10.6 189.4,0 10.4,0 -0.1,10.6 -0.1,26.4 10.4,37 		"/>
		<path class="st1" d="M18.4,18.1"/>
		<g>
			<path class="st1" d="M23.9,4.1L12.6,4.2l-8.5,8.5v11.5l8.5,8.5l11.2,0.1l8.9-8.5V12.7L23.9,4.1z M23.7,23.2H13.1V13.1h10.6V23.2z
				"/>
			<path class="st1" d="M157.7,4.1l-11.2,0.1l-8.5,8.5v11.5l8.5,8.5l11.2,0.1l8.9-8.5V12.7L157.7,4.1z M157.6,23.2H147V13.1h10.6
				V23.2z"/>
			<polygon class="st1" points="195.9,24.3 187,32.9 176.6,19.3 176.6,32.8 168.2,32.8 168.1,4 176.5,4 186.6,18 186.6,4 
				195.9,12.7 			"/>
			<polygon class="st1" points="124.5,13.1 127.8,13.1 136.3,13.1 136.3,12.7 127.4,4.1 117.8,4.2 109.3,12.8 109.3,24.2 
				117.8,32.8 127.4,32.9 136.3,24.3 136.3,18 127.8,18 127.8,23.2 118,23.2 118,13.1 			"/>
			<polygon class="st1" points="71.3,4 85.6,4 76,13.9 76.1,32.6 71.6,32.6 66.6,32.6 66.6,13.9 56.6,4 			"/>
			<g>
				<g>
					<polygon class="st1" points="43.1,13.1 62.8,13.1 62.8,12.7 54.3,4.4 42.7,4.2 34.2,12.8 34.2,24.2 42.7,32.8 53.9,32.9 
						62.8,24.3 62.8,23.2 43.1,23.2 					"/>
				</g>
			</g>
			<path class="st1" d="M99,4.1L87.8,4.2l-8.5,8.5v20h8.5l0.5,0v-8.9h10.6v9l0.1,0h8.9V12.7L99,4.1z M98.9,18.1H88.3v-5h10.6V18.1z"
				/>
		</g>
	</g>
</g>
</svg>
